<svg xmlns="http://www.w3.org/2000/svg" version="1.1" xmlns:xlink="http://www.w3.org/1999/xlink" xmlns:svgjs="http://svgjs.dev/svgjs" viewBox="0 0 2400 800" opacity="0.3"><defs><linearGradient x1="50%" y1="0%" x2="50%" y2="100%" id="oooscillate-grad"><stop stop-color="hsl(206, 75%, 49%)" stop-opacity="1" offset="0%"></stop><stop stop-color="hsl(331, 90%, 56%)" stop-opacity="1" offset="100%"></stop></linearGradient></defs><g stroke-width="2" stroke="url(#oooscillate-grad)" fill="none" stroke-linecap="round"><path d="M 0 1870 Q 600 175 1200 400 Q 1800 625 2400 1870" opacity="0.05"></path><path d="M 0 1785 Q 600 175 1200 400 Q 1800 625 2400 1785" opacity="0.10"></path><path d="M 0 1700 Q 600 175 1200 400 Q 1800 625 2400 1700" opacity="0.14"></path><path d="M 0 1615 Q 600 175 1200 400 Q 1800 625 2400 1615" opacity="0.19"></path><path d="M 0 1530 Q 600 175 1200 400 Q 1800 625 2400 1530" opacity="0.23"></path><path d="M 0 1445 Q 600 175 1200 400 Q 1800 625 2400 1445" opacity="0.28"></path><path d="M 0 1360 Q 600 175 1200 400 Q 1800 625 2400 1360" opacity="0.32"></path><path d="M 0 1275 Q 600 175 1200 400 Q 1800 625 2400 1275" opacity="0.37"></path><path d="M 0 1190 Q 600 175 1200 400 Q 1800 625 2400 1190" opacity="0.41"></path><path d="M 0 1105 Q 600 175 1200 400 Q 1800 625 2400 1105" opacity="0.46"></path><path d="M 0 1020 Q 600 175 1200 400 Q 1800 625 2400 1020" opacity="0.50"></path><path d="M 0 935 Q 600 175 1200 400 Q 1800 625 2400 935" opacity="0.55"></path><path d="M 0 850 Q 600 175 1200 400 Q 1800 625 2400 850" opacity="0.59"></path><path d="M 0 765 Q 600 175 1200 400 Q 1800 625 2400 765" opacity="0.64"></path><path d="M 0 680 Q 600 175 1200 400 Q 1800 625 2400 680" opacity="0.68"></path><path d="M 0 595 Q 600 175 1200 400 Q 1800 625 2400 595" opacity="0.73"></path><path d="M 0 510 Q 600 175 1200 400 Q 1800 625 2400 510" opacity="0.77"></path><path d="M 0 425 Q 600 175 1200 400 Q 1800 625 2400 425" opacity="0.82"></path><path d="M 0 340 Q 600 175 1200 400 Q 1800 625 2400 340" opacity="0.86"></path><path d="M 0 255 Q 600 175 1200 400 Q 1800 625 2400 255" opacity="0.91"></path><path d="M 0 170 Q 600 175 1200 400 Q 1800 625 2400 170" opacity="0.95"></path></g></svg>