<?xml version="1.0" encoding="UTF-8" standalone="no"?>
<svg
   width="700"
   height="700"
   viewBox="0 0 700 700"
   fill="white"
   version="1.1"
   id="svg8"
   xmlns="http://www.w3.org/2000/svg"
   xmlns:svg="http://www.w3.org/2000/svg">
  <path
     d="m 106.188,269.381 c 5.201,1.346 19.882,7.12 24.575,3.823 3.111,-2.186 3.897,-10.011 5.054,-13.483 3.695,-11.095 7.668,-22.257 12.67,-32.843 14.27,-30.2 35.012,-58.964 59.162,-82.02 45.95,-43.87 106.676,-72.1637 170.996,-70.5884 24.128,0.5909 46.171,6.7371 69.564,11.5775 l 8.695,-23.1833 C 371.571,38.4533 281.019,51.2392 210.533,107.532 c -21.884,17.477 -41.232,38.653 -57.556,61.388 -22.184,30.897 -35.308,64.561 -46.789,100.461 z m 374.87,-162.283 41.545,40.571 23.188,21.251 c 5.264,-18.683 8.695,-38.529 8.695,-57.958 0,-3.818 2.195,-14.8225 -0.064,-17.7323 -2.446,-3.1485 -14.781,-0.0225 -18.293,0.471 -18.319,2.5743 -38.058,5.8673 -55.071,13.3973 z M 179.616,297.394 h 0.966 l 22.222,-22.217 c 3.316,-3.315 7.051,-8.565 11.594,-10.185 3.732,-1.332 8.789,0.496 12.56,1.081 9.652,1.497 19.343,2.6 28.985,4.197 8.938,1.48 20.939,1.63 28.984,6.008 5.553,3.021 9.796,8.856 14.406,13.098 13.297,12.238 25.517,25.568 38.733,37.877 19.269,17.945 42.957,36.189 58.936,57.078 h 2.899 l 14.492,-15.455 c 4.445,22.917 9.818,45.646 14.117,68.584 1.498,7.993 6.532,19.993 4.995,28.013 -1.6,8.348 -14.305,17.464 -20.078,23.179 -2.01,1.99 -6.434,4.857 -6.839,7.881 -0.693,5.171 13.909,15.613 17.467,19.17 h 0.966 l 48.308,-49.264 20.259,-20.286 0.044,-11.591 -0.942,-28.013 -1.694,-74.38 -0.859,-19.319 -11.977,-15.456 c 28.444,-14.166 47.833,-50.883 56.173,-80.175 2.233,-7.843 7.999,-21.917 5.077,-29.945 -1.922,-5.281 -8.103,-9.652 -11.976,-13.524 -9.191,-9.189 -18.837,-17.871 -28.019,-27.047 -7.919,-7.914 -16.073,-15.496 -24.154,-23.221 -3.213,-3.072 -6.904,-8.482 -11.594,-9.214 -6.378,-0.995 -16.577,5.408 -22.221,8.074 -21.582,10.192 -41.906,23.61 -57.691,41.748 -5.216,5.995 -11.014,19.358 -17.873,22.968 -7.656,4.029 -22.161,1.648 -30.714,2.234 l -66.665,4.657 c -9.078,0.625 -22.467,-0.514 -30.917,2.601 -5.69,2.098 -9.535,8.728 -13.565,12.941 -9.262,9.685 -18.536,19.49 -27.981,28.979 -9.041,9.083 -17.886,18.405 -26.362,28.013 -2.374,2.692 -8.219,6.695 -8.219,10.626 0,6.277 13.906,16.035 18.157,20.285 z M 498.449,248.13 v 0.966 c -8.225,8.223 -15.926,16.892 -24.154,25.115 -2.343,2.341 -5.979,7.528 -9.662,7.528 -6.379,0 -17.614,-14.897 -22.259,-19.284 -21.132,-19.956 -41.242,-41.107 -61.797,-61.658 3.624,-5.144 8.242,-9.932 12.599,-14.489 3.654,-3.823 7.206,-7.673 10.753,-11.592 2.37,-2.618 5.806,-7.372 9.411,-8.248 4.26,-1.035 13.915,10.529 15.432,14.044 1.628,3.771 -0.087,9.43 0.2,13.524 0.665,9.503 5.178,18.515 12.488,24.666 7.273,6.121 15.713,9.574 25.106,10.795 4.079,0.53 8.678,-0.463 12.56,1.108 7.464,3.021 13.732,11.935 19.323,17.525 z M 465.6,169.287 c 25.523,-5.237 35.44,33.736 9.661,39.693 -25.554,5.904 -35.283,-34.435 -9.661,-39.693 z m 127.533,-0.367 c -4.269,4.268 -14.545,11.226 -15.574,17.388 -0.945,5.661 8.11,15.567 10.936,20.285 9.073,15.149 15.358,31.425 20.366,48.299 15.274,51.461 15.275,109.346 -1.881,160.35 -23.85,70.908 -78.508,131.242 -149.11,157.862 -14.165,5.341 -28.631,9.276 -43.477,12.149 -7.277,1.408 -15.916,3.516 -23.202,1.169 -2.841,-0.915 -8.627,-3.337 -8.628,-6.99 0,-3.613 5.904,-6.905 7.869,-9.649 6.231,-8.702 3.136,-21.66 -7.922,-24.562 -12.601,-3.307 -19.211,7.076 -27.053,14.917 l -51.206,51.196 c -6.183,6.174 -17.994,14.15 -19.736,23.183 -1.948,10.104 10.49,16.247 18.755,12.423 13.48,-6.235 20.123,-25.141 33.83,-30.193 5.05,-1.862 12.072,-0.467 17.391,-0.597 10.272,-0.252 20.657,-1.286 30.917,-2.005 26.879,-1.883 53.963,-7.685 79.225,-16.993 129.205,-47.602 198.529,-184.319 176.241,-317.145 -4.762,-28.378 -14.266,-55.709 -27.664,-81.142 -5.307,-10.074 -11.115,-22.65 -20.077,-29.945 z m -281.153,43.469 -8.184,15.282 -24.666,2.105 -52.172,3.864 c 3.517,-6.084 10.032,-14.165 16.425,-17.36 5.392,-2.696 13.447,-0.598 19.323,-1.157 16.352,-1.556 32.828,-2.734 49.274,-2.734 z m 71.458,43.8 c 40.647,-3.967 48.095,60.854 7.767,65.187 -6.322,0.679 -13.456,0.542 -19.323,-2.104 -30.874,-13.927 -20.828,-59.922 11.556,-63.083 z M 279.13,314.782 v 0.966 c 20.77,20.765 42.02,41.045 62.801,61.822 9.743,9.741 21.287,25.069 33.816,30.91 l 10.627,-11.591 c -5.491,-7.795 -13.572,-13.572 -20.289,-20.285 -15.955,-15.946 -32.354,-31.382 -48.308,-47.333 -6.278,-6.277 -17.294,-21.624 -26.086,-23.815 -4.485,-1.118 -9.8,6.566 -12.561,9.326 z m -30.917,31.877 v 0.965 c 3.074,3.073 12.58,9.699 11.951,14.49 -1.177,8.958 -15.7,12.276 -16.673,22.217 -0.892,9.121 7.879,15.023 16.316,11.842 7.31,-2.756 14.944,-11.422 19.323,-17.638 h 0.967 c 2.875,4.081 12.506,10.364 12.506,15.456 0,9.624 -18.547,15.334 -19.814,26.081 -1.032,8.758 9.289,14.761 16.969,11.841 7.981,-3.036 17.398,-14.654 22.222,-21.501 h 0.966 c 2.034,2.864 8.642,7.096 8.642,10.664 0,7.364 -14.181,13.777 -16.657,21.213 -2.456,7.375 4.368,14.86 11.88,14.266 4.949,-0.392 9.142,-4.169 12.47,-7.528 4.22,-4.26 7.729,-9.034 12.65,-12.533 5.618,11.142 24.104,-9.974 21.496,-15.456 -4.739,-9.958 -18.453,-18.591 -26.327,-26.119 -13.48,-12.888 -26.173,-26.594 -39.609,-39.528 -9.382,-9.032 -20.481,-17.349 -28.022,-28.052 -8.675,2.434 -15.518,12.753 -21.256,19.32 z m -58.935,-0.451 c -6.467,1.54 -10.423,7.33 -14.755,11.877 -7.574,7.953 -15.557,15.45 -23.104,23.435 -18.637,19.717 -38.679,38.787 -58.4437,57.371 -11.1116,10.448 -24.6913,20.887 -33.5764,33.343 -6.5356,9.163 0.202,19.931 11.0408,19.263 13.048,-0.803 28.0569,-22.199 36.7143,-30.854 19.023,-19.019 38.02,-38.781 57.969,-56.828 12.408,-11.225 29.216,-23.892 38.406,-37.924 6.523,-9.959 -2.921,-22.381 -14.251,-19.683 z m 284.051,0.451 0.014,61.821 0.373,27.048 -13.913,15.455 c 0,-18.482 0.211,-37.579 -1.053,-56.026 -0.649,-9.482 -3.658,-23.729 -0.297,-32.843 2.192,-5.943 9.837,-11.907 14.876,-15.455 z m -385.4984,31.45 c -9.531,2.454 -28.3635,21.006 -31.2519,30.371 -3.4194,11.089 9.0233,18.604 18.6918,16.004 9.2431,-2.486 27.5405,-20.627 29.9925,-29.527 2.789,-10.128 -7.6045,-19.378 -17.4324,-16.848 z m 104.3454,47.322 c -5.655,1.227 -9.629,6.202 -13.526,10.097 l -24.154,24.149 c -20.4,20.396 -40.925,40.723 -61.7481,60.688 -11.3166,10.85 -25.2121,21.264 -34.4493,33.977 -6.3816,8.782 1.9674,19.997 12.1411,19.015 5.5124,-0.532 9.8646,-5.713 13.5263,-9.356 l 23.188,-23.183 c 19.667,-19.656 39.517,-39.484 59.724,-58.609 12.298,-11.641 27.443,-23.196 37.305,-37.022 6.304,-8.838 -0.59,-22.232 -12.007,-19.756 z m 62.8,15.466 c -6.969,0.837 -11.792,7.387 -16.424,12.018 -11.696,11.693 -24.121,23.031 -35.028,35.465 -35.365,40.316 -77.748,75.403 -115.6934,113.294 -9.4891,9.476 -23.0739,18.315 -29.9413,29.945 -4.9493,8.382 3.0833,16.849 11.5843,17.283 7.6102,0.388 12.499,-6.651 17.3908,-11.483 11.4947,-11.356 23.3386,-22.372 34.7816,-33.813 34.459,-34.452 69.88,-67.934 104.346,-102.392 12.869,-12.868 27.688,-24.731 39.406,-38.639 7.356,-8.732 2.275,-23.203 -10.422,-21.678 z m 100.481,56.204 c -13.336,5.088 -25.233,24.179 -35.762,33.894 -23.733,21.9 -46.71,44.947 -69.549,67.781 -10.381,10.379 -23.755,19.902 -32.297,31.877 -6.734,9.441 2.472,19.99 12.973,18.132 5.614,-0.993 10.582,-6.61 14.493,-10.418 7.638,-7.437 15.385,-14.85 23.188,-22.117 24.812,-23.108 49.444,-46.623 73.428,-70.602 9.242,-9.24 23.27,-18.736 29.942,-29.945 6.132,-10.303 -5.478,-22.775 -16.416,-18.602 z m -82.123,5.794 c -12.935,0.193 -28.153,22.602 -36.715,31.161 -31.895,31.889 -66.859,61.66 -97.417,94.755 -7.146,7.74 -4.883,18.702 6.598,20.013 14.166,1.618 28.807,-19.966 37.681,-28.796 31.665,-31.506 67.552,-60.119 97.011,-93.737 7.493,-8.552 7.965,-23.622 -7.158,-23.396 z"
     fill="url(#paint0_linear_800_112)"
     id="path1"
     style="fill:white" />
  <defs
     id="defs8">
  </defs>
</svg>
