<svg width="48" height="48" viewBox="0 0 48 48" fill="none" xmlns="http://www.w3.org/2000/svg">
<circle cx="22.9689" cy="22.9689" r="22.9689" fill="url(#paint0_radial_866_217)" fill-opacity="0.9"/>
<path d="M35.6162 2.69111L38.9023 5.85863L40.7365 7.51789C41.1529 6.05917 41.4243 4.50968 41.4243 2.99277C41.4243 2.69466 41.598 1.83551 41.4192 1.60833C41.2259 1.36248 40.2501 1.60658 39.9723 1.64511C38.5232 1.8461 36.9619 2.10317 35.6162 2.69111ZM11.7723 17.5485H11.8488L13.6065 15.8138C13.8687 15.555 14.1643 15.1452 14.5236 15.0187C14.8188 14.9146 15.2188 15.0573 15.5171 15.1032C16.2805 15.2199 17.0471 15.306 17.8097 15.4307C18.5168 15.5463 19.4661 15.5579 20.1025 15.8998C20.5417 16.1357 20.8773 16.5912 21.2419 16.9224C22.2936 17.8779 23.2602 18.9186 24.3057 19.8797C25.8298 21.2808 27.7035 22.7051 28.9674 24.336H29.1967L30.343 23.1294C30.6947 24.9186 31.1197 26.6932 31.4597 28.484C31.5782 29.1082 31.9764 30.045 31.8548 30.6712C31.7283 31.323 30.7233 32.0347 30.2667 32.4809C30.1077 32.6362 29.7578 32.8601 29.7257 33.0961C29.6708 33.5 30.8259 34.3151 31.1073 34.5929H31.1838L35.0048 30.7467L36.6074 29.1627L36.6109 28.2579L36.5363 26.0706L36.4022 20.2634L36.3344 18.7551L35.387 17.5485C37.6369 16.4424 39.1705 13.5757 39.8302 11.2888C40.0068 10.6764 40.4629 9.57765 40.2319 8.95078C40.0799 8.53853 39.5908 8.19727 39.2845 7.89497C38.5576 7.17751 37.7945 6.49969 37.0683 5.78327C36.4418 5.16538 35.7969 4.57337 35.1577 3.97025C34.9035 3.73042 34.6116 3.30797 34.2406 3.25087C33.7361 3.17317 32.9294 3.67311 32.4829 3.88127C30.7758 4.67699 29.1682 5.72461 27.9196 7.14074C27.507 7.60874 27.0484 8.6521 26.5059 8.93394C25.9002 9.24851 24.753 9.06267 24.0764 9.10835L18.8032 9.47196C18.0851 9.52079 17.0261 9.43182 16.3577 9.67507C15.9077 9.83884 15.6035 10.3565 15.2847 10.6854C14.5521 11.4416 13.8185 12.2071 13.0715 12.948C12.3564 13.6571 11.6568 14.3849 10.9863 15.1351C10.7984 15.3452 10.3361 15.6577 10.3361 15.9647C10.3361 16.4548 11.4361 17.2165 11.7723 17.5485ZM36.9919 13.7022V13.7776C36.3412 14.4196 35.7321 15.0964 35.0813 15.7384C34.8959 15.9212 34.6084 16.3261 34.3171 16.3261C33.8124 16.3261 32.9237 15.1631 32.5563 14.8205C30.8849 13.2626 29.2941 11.6111 27.6683 10.0067C27.9548 9.60501 28.3203 9.23115 28.6647 8.87536C28.9539 8.57693 29.2349 8.27638 29.5154 7.97033C29.7028 7.76598 29.9746 7.39483 30.2598 7.32637C30.5967 7.24559 31.3604 8.14842 31.4805 8.42284C31.6092 8.71728 31.4735 9.15907 31.4962 9.47873C31.5489 10.2207 31.9058 10.9243 32.4841 11.4045C33.0593 11.8824 33.727 12.1521 34.4699 12.2474C34.7926 12.2888 35.1564 12.2112 35.4635 12.3339C36.0537 12.5698 36.5496 13.2658 36.9919 13.7022ZM34.3935 7.54647C36.4123 7.13758 37.1967 10.1804 35.1577 10.6455C33.1363 11.1065 32.3669 7.95698 34.3935 7.54647ZM22.2422 10.9117L21.5949 12.1048L19.644 12.2692L15.5171 12.5709C15.7953 12.0959 16.3106 11.4649 16.8163 11.2154C17.2429 11.0049 17.88 11.1688 18.3447 11.1251C19.6382 11.0036 20.9414 10.9117 22.2422 10.9117ZM27.8945 14.3313C31.1097 14.0216 31.6989 19.0825 28.5089 19.4208C28.0088 19.4738 27.4445 19.4632 26.9805 19.2566C24.5384 18.1691 25.333 14.5782 27.8945 14.3313ZM19.644 18.906V18.9814C21.2867 20.6027 22.9676 22.186 24.6113 23.8081C25.3821 24.5687 26.2951 25.7654 27.2861 26.2215L28.1268 25.3165C27.6925 24.7079 27.0532 24.2568 26.5219 23.7327C25.2599 22.4877 23.9627 21.2826 22.7008 20.0373C22.2042 19.5472 21.3329 18.3489 20.6374 18.1777C20.2827 18.0906 19.8622 18.6906 19.644 18.906ZM17.1983 21.3948V21.4702C17.4415 21.7101 18.1934 22.2274 18.1437 22.6015C18.0506 23.3008 16.9018 23.5598 16.8249 24.336C16.7543 25.0482 17.448 25.5089 18.1154 25.2606C18.6936 25.0454 19.2975 24.3688 19.644 23.8836H19.7203C19.9477 24.2021 20.7096 24.6927 20.7096 25.0902C20.7096 25.8416 19.2424 26.2874 19.1423 27.1265C19.0606 27.8102 19.8771 28.279 20.4845 28.051C21.1158 27.814 21.8608 26.9068 22.2422 26.3724H22.3187C22.4795 26.5959 23.0022 26.9264 23.0022 27.2049C23.0022 27.7799 21.8806 28.2805 21.6846 28.8612C21.4904 29.4369 22.0302 30.0212 22.6244 29.9748C23.0159 29.9443 23.3476 29.6495 23.6106 29.3871C23.9446 29.0545 24.2221 28.6819 24.6113 28.4086C25.0558 29.2786 26.518 27.63 26.3117 27.202C25.9368 26.4244 24.8521 25.7504 24.2293 25.1627C23.1629 24.1565 22.1589 23.0863 21.0963 22.0766C20.354 21.3714 19.4761 20.722 18.8796 19.8864C18.1934 20.0765 17.6521 20.8821 17.1983 21.3948ZM12.5366 21.3596C12.0251 21.4798 11.7121 21.9318 11.3695 22.2869C10.7703 22.9078 10.139 23.4931 9.542 24.1166C8.06782 25.656 6.4825 27.1448 4.91914 28.5959C4.04021 29.4115 2.96607 30.2265 2.26326 31.1991C1.7463 31.9145 2.27924 32.7552 3.13658 32.7031C4.16868 32.6403 5.35589 30.9699 6.04065 30.2941C7.54536 28.8091 9.04799 27.2663 10.626 25.8572C11.6074 24.9809 12.9369 23.9918 13.6639 22.8964C14.1798 22.1187 13.4328 21.1489 12.5366 21.3596ZM35.0048 21.3948L35.006 26.2215L35.0354 28.3331L33.9349 29.5399C33.9349 28.0969 33.9516 26.606 33.8516 25.1656C33.8002 24.4253 33.5623 23.3131 33.8282 22.6015C34.0016 22.1374 34.6064 21.6718 35.0048 21.3948ZM12.7659 27.545C12.3185 27.6407 12.0042 28.0291 11.6959 28.3331L9.78539 30.2186C8.17169 31.811 6.5482 33.3981 4.90116 34.9568C4.00601 35.8041 2.90688 36.617 2.17622 37.6096C1.67145 38.2952 2.33185 39.1709 3.13658 39.0942C3.57262 39.0526 3.91687 38.6482 4.20652 38.3638L6.04065 36.5537C7.59636 35.0191 9.16639 33.471 10.7648 31.9778C11.7376 31.069 12.9355 30.1668 13.7156 29.0875C14.2142 28.3973 13.6689 27.3517 12.7659 27.545ZM17.7334 28.7523C17.182 28.8177 16.8006 29.3291 16.4341 29.6908C15.509 30.6037 14.5262 31.4889 13.6635 32.4597C10.8661 35.6074 7.51367 38.3467 4.51221 41.305C3.76161 42.0449 2.68706 42.735 2.14385 43.643C1.75236 44.2975 2.38773 44.9584 3.06016 44.9923C3.66213 45.0226 4.04883 44.4732 4.43579 44.0959C5.34497 43.2092 6.28181 42.3491 7.187 41.4559C9.91266 38.766 12.7144 36.1519 15.4407 33.4616C16.4586 32.4571 17.6307 31.5309 18.5576 30.4449C19.1395 29.7631 18.7377 28.6334 17.7334 28.7523ZM25.6813 33.1405C24.6264 33.5378 23.6853 35.0283 22.8525 35.7869C20.9751 37.4967 19.1577 39.296 17.3512 41.0787C16.5301 41.8892 15.4722 42.6328 14.7966 43.5676C14.2639 44.3046 14.9921 45.1283 15.8228 44.9832C16.2668 44.9058 16.6598 44.4672 16.9692 44.1698C17.5732 43.5891 18.186 43.0105 18.8032 42.4431C20.7659 40.6389 22.7142 38.803 24.6113 36.9309C25.3425 36.2094 26.452 35.4681 26.9798 34.5929C27.4648 33.7884 26.5464 32.8147 25.6813 33.1405ZM19.1854 33.5929C18.1623 33.608 16.9585 35.3575 16.2813 36.0258C13.7584 38.5155 10.9927 40.8399 8.57562 43.4238C8.01043 44.028 8.1894 44.884 9.09755 44.9863C10.2181 45.1125 11.3761 43.4275 12.078 42.7381C14.5827 40.2782 17.4214 38.0443 19.7516 35.4195C20.3443 34.7518 20.3816 33.5753 19.1854 33.5929Z" fill="white"/>
<defs>
<radialGradient id="paint0_radial_866_217" cx="0" cy="0" r="1" gradientUnits="userSpaceOnUse" gradientTransform="translate(30.1467 13.6378) rotate(134.599) scale(36.2904)">
<stop stop-color="#0944B7"/>
<stop offset="0.445" stop-color="#0944B7"/>
<stop offset="0.78" stop-color="#6000DB"/>
<stop offset="1" stop-color="#B7095D"/>
</radialGradient>
</defs>
</svg>
