<svg width="256" height="256" viewBox="0 0 256 256" fill="none" xmlns="http://www.w3.org/2000/svg">
<circle cx="128" cy="128" r="128" fill="url(#paint0_radial_863_212)" fill-opacity="0.9"/>
<g clip-path="url(#clip0_863_212)">
<path d="M29.6133 104.21C31.5878 104.714 37.1603 106.872 38.9418 105.64C40.123 104.823 40.4213 101.897 40.8602 100.599C42.2631 96.4505 43.7711 92.2772 45.6697 88.3196C51.0862 77.0285 58.96 66.2741 68.127 57.6539C85.569 41.2518 108.621 30.6735 133.035 31.2624C142.194 31.4834 150.561 33.7813 159.441 35.5911L162.742 26.9234C130.35 17.8716 95.9773 22.6519 69.2218 43.6987C60.9147 50.2329 53.5705 58.1501 47.3741 66.6505C38.9534 78.202 33.9717 90.7881 29.6133 104.21ZM171.91 43.5365L187.68 58.7048L196.482 66.6505C198.48 59.6651 199.783 52.2451 199.783 44.981C199.783 43.5534 200.616 39.4392 199.758 38.3513C198.831 37.174 194.148 38.3429 192.815 38.5274C185.861 39.49 178.368 40.721 171.91 43.5365ZM57.4859 114.684H57.8526L66.2877 106.377C67.5463 105.138 68.9646 103.175 70.6888 102.57C72.1055 102.071 74.0251 102.755 75.4565 102.974C79.1201 103.533 82.7987 103.945 86.4584 104.543C89.8519 105.096 94.4073 105.152 97.4613 106.789C99.5692 107.919 101.18 110.1 102.929 111.686C107.976 116.262 112.615 121.245 117.632 125.848C124.946 132.557 133.938 139.378 140.003 147.188H141.104L146.605 141.409C148.293 149.977 150.332 158.476 151.964 167.051C152.532 170.04 154.443 174.526 153.86 177.525C153.253 180.646 148.43 184.054 146.238 186.191C145.476 186.935 143.797 188.007 143.642 189.137C143.379 191.071 148.922 194.975 150.273 196.305H150.639L168.976 177.886L176.667 170.301L176.684 165.968L176.326 155.494L175.682 127.685L175.357 120.462L170.811 114.684C181.607 109.387 188.967 95.6596 192.133 84.7082C192.98 81.7755 195.169 76.5141 194.061 73.5122C193.331 71.538 190.984 69.9038 189.514 68.4562C186.026 65.0205 182.364 61.7746 178.879 58.3439C175.872 55.385 172.777 52.55 169.71 49.6619C168.49 48.5134 167.089 46.4904 165.309 46.217C162.888 45.8449 159.017 48.2389 156.874 49.2358C148.682 53.0462 140.967 58.063 134.975 64.8444C132.995 67.0855 130.794 72.0819 128.191 73.4316C125.284 74.9379 119.779 74.048 116.532 74.2668L91.2262 76.008C87.7803 76.2418 82.6981 75.8157 79.4905 76.9806C77.331 77.7649 75.8713 80.2436 74.3416 81.8188C70.8259 85.4399 67.3054 89.1057 63.7203 92.6538C60.2886 96.0494 56.9313 99.5345 53.7138 103.127C52.8123 104.133 50.5937 105.63 50.5937 107.1C50.5937 109.447 55.8722 113.095 57.4859 114.684ZM178.512 96.2653V96.6266C175.39 99.7008 172.466 102.942 169.343 106.016C168.454 106.892 167.074 108.83 165.676 108.83C163.254 108.83 158.989 103.261 157.226 101.621C149.205 94.1602 141.571 86.2519 133.769 78.5685C135.144 76.6451 136.898 74.8548 138.551 73.151C139.938 71.7219 141.287 70.2827 142.633 68.8171C143.532 67.8385 144.837 66.0612 146.206 65.7334C147.822 65.3465 151.487 69.6699 152.063 70.9841C152.681 72.394 152.03 74.5096 152.139 76.0404C152.392 79.5935 154.104 82.9627 156.879 85.2625C159.64 87.5509 162.844 88.8422 166.409 89.2985C167.958 89.4969 169.704 89.1255 171.177 89.7129C174.01 90.8426 176.389 94.1756 178.512 96.2653ZM166.043 66.7873C175.731 64.8293 179.495 79.4006 169.71 81.6275C160.01 83.8352 156.317 68.7532 166.043 66.7873ZM214.453 66.6505C212.832 68.2458 208.932 70.8475 208.542 73.151C208.182 75.2679 211.62 78.9714 212.692 80.7355C216.136 86.3993 218.522 92.4841 220.423 98.7932C226.221 118.033 226.221 139.675 219.709 158.745C210.656 185.255 189.908 207.813 163.109 217.766C157.732 219.763 152.24 221.234 146.605 222.308C143.843 222.835 140.564 223.622 137.798 222.745C136.72 222.403 134.523 221.497 134.523 220.132C134.523 218.781 136.764 217.55 137.51 216.524C139.875 213.271 138.7 208.426 134.502 207.341C129.719 206.105 127.211 209.987 124.233 212.918L104.796 232.059C102.449 234.367 97.9657 237.349 97.3048 240.727C96.5649 244.505 101.287 246.801 104.424 245.372C109.541 243.04 112.062 235.972 117.265 234.083C119.182 233.387 121.847 233.908 123.867 233.859C127.766 233.765 131.708 233.379 135.602 233.11C145.805 232.406 156.086 230.237 165.676 226.757C214.721 208.959 241.035 157.844 232.576 108.183C230.767 97.5733 227.16 87.3549 222.074 77.8461C220.06 74.0795 217.855 69.3776 214.453 66.6505ZM107.73 82.9024L104.623 88.6159L95.2611 89.403L75.4565 90.8478C76.7917 88.573 79.2647 85.5517 81.6913 84.3568C83.7384 83.3489 86.7959 84.1334 89.0261 83.9245C95.2332 83.3427 101.487 82.9024 107.73 82.9024ZM134.855 99.2781C150.284 97.7948 153.111 122.03 137.803 123.65C135.403 123.904 132.695 123.853 130.468 122.864C118.749 117.656 122.562 100.46 134.855 99.2781ZM95.2611 121.185V121.546C103.144 129.31 111.211 136.892 119.099 144.66C122.798 148.302 127.179 154.033 131.935 156.217L135.969 151.883C133.885 148.969 130.817 146.808 128.268 144.298C122.211 138.337 115.986 132.565 109.931 126.602C107.547 124.255 103.366 118.517 100.028 117.697C98.3263 117.28 96.3085 120.153 95.2611 121.185ZM83.5246 133.103V133.464C84.6914 134.613 88.3001 137.09 88.0612 138.882C87.6147 142.23 82.1014 143.471 81.7325 147.188C81.3937 150.598 84.7229 152.804 87.9256 151.615C90.7001 150.585 93.5983 147.345 95.2611 145.021H95.6272C96.7186 146.546 100.375 148.896 100.375 150.799C100.375 154.397 93.3342 156.532 92.8535 160.551C92.4615 163.825 96.3797 166.07 99.2946 164.977C102.324 163.843 105.899 159.498 107.73 156.939H108.097C108.869 158.009 111.377 159.592 111.377 160.926C111.377 163.679 105.994 166.077 105.054 168.857C104.122 171.614 106.713 174.413 109.564 174.19C111.443 174.044 113.034 172.632 114.297 171.376C115.9 169.783 117.231 167.999 119.099 166.69C121.232 170.856 128.249 162.962 127.259 160.912C125.46 157.189 120.254 153.961 117.265 151.146C112.148 146.328 107.33 141.203 102.23 136.368C98.6686 132.991 94.4555 129.881 91.593 125.88C88.3001 126.79 85.7024 130.648 83.5246 133.103ZM61.1535 132.934C58.6987 133.51 57.197 135.675 55.5528 137.375C52.6773 140.348 49.6475 143.151 46.7827 146.137C39.7082 153.509 32.1004 160.638 24.598 167.587C20.3801 171.493 15.2254 175.396 11.8527 180.053C9.37183 183.479 11.9294 187.504 16.0437 187.255C20.9966 186.955 26.6939 178.955 29.98 175.719C37.201 168.608 44.412 161.22 51.9847 154.472C56.6944 150.276 63.0747 145.539 66.5631 140.294C69.039 136.57 65.4542 131.925 61.1535 132.934ZM168.976 133.103L168.982 156.217L169.123 166.329L163.842 172.108C163.842 165.198 163.922 158.058 163.442 151.16C163.196 147.615 162.054 142.289 163.33 138.882C164.162 136.659 167.064 134.43 168.976 133.103ZM22.6452 144.862C19.0272 145.779 11.8786 152.715 10.7822 156.217C9.4842 160.362 14.2073 163.172 17.8774 162.2C21.3859 161.27 28.3315 154.488 29.2619 151.16C30.3207 147.374 26.3758 143.916 22.6452 144.862ZM62.2537 162.554C60.1069 163.013 58.5986 164.873 57.1191 166.329L47.9507 175.358C40.2067 182.983 32.4157 190.584 24.5117 198.048C20.216 202.105 14.9414 205.998 11.435 210.751C9.01263 214.034 12.1818 218.228 16.0437 217.86C18.1362 217.661 19.7882 215.724 21.1782 214.363L29.98 205.695C37.4458 198.346 44.9802 190.932 52.6507 183.782C57.319 179.43 63.0677 175.11 66.8113 169.941C69.2043 166.636 66.5873 161.629 62.2537 162.554ZM86.0923 168.336C83.4464 168.649 81.6158 171.098 79.8573 172.83C75.418 177.202 70.7013 181.441 66.5612 186.09C53.1369 201.163 37.0489 214.281 22.6452 228.447C19.0431 231.99 13.8865 235.295 11.2797 239.643C9.40095 242.777 12.45 245.942 15.6769 246.105C18.5657 246.25 20.4215 243.619 22.2784 241.812C26.6415 237.566 31.1373 233.447 35.4813 229.17C48.5615 216.289 62.0068 203.771 75.0898 190.887C79.9749 186.077 85.5997 181.642 90.0476 176.441C92.8402 173.177 90.9118 167.767 86.0923 168.336ZM124.233 189.35C119.171 191.252 114.655 198.39 110.659 202.022C101.649 210.21 92.9275 218.826 84.2583 227.364C80.3178 231.245 75.2413 234.805 71.9988 239.282C69.4427 242.812 72.9371 246.756 76.9234 246.061C79.0542 245.69 80.9402 243.59 82.4249 242.166C85.3238 239.385 88.2645 236.614 91.2262 233.897C100.645 225.257 109.995 216.466 119.099 207.501C122.608 204.046 127.932 200.496 130.465 196.305C132.792 192.453 128.385 187.79 124.233 189.35ZM93.0603 191.516C88.1506 191.588 82.3739 199.966 79.1238 203.167C67.0168 215.089 53.7446 226.22 42.1451 238.594C39.4328 241.487 40.2917 245.586 44.6498 246.076C50.0271 246.68 55.5845 238.611 58.9528 235.31C70.9726 223.53 84.595 212.832 95.7775 200.263C98.6218 197.066 98.8007 191.432 93.0603 191.516Z" fill="white"/>
</g>
<defs>
<radialGradient id="paint0_radial_863_212" cx="0" cy="0" r="1" gradientUnits="userSpaceOnUse" gradientTransform="translate(168 76) rotate(134.599) scale(202.237)">
<stop stop-color="#0944B7"/>
<stop offset="0.445" stop-color="#0944B7"/>
<stop offset="0.78" stop-color="#6000DB"/>
<stop offset="1" stop-color="#B7095D"/>
</radialGradient>
<clipPath id="clip0_863_212">
<rect width="236" height="236" fill="white" transform="translate(10.5625 14.5625)"/>
</clipPath>
</defs>
</svg>
