
    <svg
      xmlns="http://www.w3.org/2000/svg"
      version="1.1"
      viewBox="0 0 2400 800"
    >
      <defs>
        <linearGradient
          x1="50%"
          y1="0%"
          x2="50%"
          y2="100%"
          id="oooscillate-grad"
        >
          <stop
            stop-color="hsl(206, 75%, 49%)"
            stop-opacity="1"
            offset="0%"
          ></stop>
          <stop
            stop-color="hsl(331, 90%, 56%)"
            stop-opacity="1"
            offset="100%"
          ></stop>
        </linearGradient>
      </defs>
      <g
        stroke-width="2"
        stroke="url(#oooscillate-grad)"
        fill="none"
        stroke-linecap="round"
      >
        <path
          d="M 0 858 Q 600 175 1200 400 Q 1800 625 2400 858"
          opacity="0.05"
        ></path>
        <path
          d="M 0 819 Q 600 175 1200 400 Q 1800 625 2400 819"
          opacity="0.10"
        ></path>
        <path
          d="M 0 780 Q 600 175 1200 400 Q 1800 625 2400 780"
          opacity="0.14"
        ></path>
        <path
          d="M 0 741 Q 600 175 1200 400 Q 1800 625 2400 741"
          opacity="0.19"
        ></path>
        <path
          d="M 0 702 Q 600 175 1200 400 Q 1800 625 2400 702"
          opacity="0.23"
        ></path>
        <path
          d="M 0 663 Q 600 175 1200 400 Q 1800 625 2400 663"
          opacity="0.28"
        ></path>
        <path
          d="M 0 624 Q 600 175 1200 400 Q 1800 625 2400 624"
          opacity="0.32"
        ></path>
        <path
          d="M 0 585 Q 600 175 1200 400 Q 1800 625 2400 585"
          opacity="0.37"
        ></path>
        <path
          d="M 0 546 Q 600 175 1200 400 Q 1800 625 2400 546"
          opacity="0.41"
        ></path>
        <path
          d="M 0 507 Q 600 175 1200 400 Q 1800 625 2400 507"
          opacity="0.46"
        ></path>
        <path
          d="M 0 468 Q 600 175 1200 400 Q 1800 625 2400 468"
          opacity="0.50"
        ></path>
        <path
          d="M 0 429 Q 600 175 1200 400 Q 1800 625 2400 429"
          opacity="0.55"
        ></path>
        <path
          d="M 0 390 Q 600 175 1200 400 Q 1800 625 2400 390"
          opacity="0.59"
        ></path>
        <path
          d="M 0 351 Q 600 175 1200 400 Q 1800 625 2400 351"
          opacity="0.64"
        ></path>
        <path
          d="M 0 312 Q 600 175 1200 400 Q 1800 625 2400 312"
          opacity="0.68"
        ></path>
        <path
          d="M 0 273 Q 600 175 1200 400 Q 1800 625 2400 273"
          opacity="0.73"
        ></path>
        <path
          d="M 0 234 Q 600 175 1200 400 Q 1800 625 2400 234"
          opacity="0.77"
        ></path>
        <path
          d="M 0 195 Q 600 175 1200 400 Q 1800 625 2400 195"
          opacity="0.82"
        ></path>
        <path
          d="M 0 156 Q 600 175 1200 400 Q 1800 625 2400 156"
          opacity="0.86"
        ></path>
        <path
          d="M 0 117 Q 600 175 1200 400 Q 1800 625 2400 117"
          opacity="0.91"
        ></path>
        <path
          d="M 0 78 Q 600 175 1200 400 Q 1800 625 2400 78"
          opacity="0.95"
        ></path>
      </g>
    </svg>
  

