<svg width="57" height="57" viewBox="0 0 57 57" fill="none" xmlns="http://www.w3.org/2000/svg">
<path fill-rule="evenodd" clip-rule="evenodd" d="M29.2276 0.089794C30.835 0.49164 31.8123 2.12044 31.4104 3.72783L29.9104 9.72783C29.5086 11.3352 27.8798 12.3125 26.2724 11.9107C24.665 11.5088 23.6877 9.88 24.0896 8.27262L25.5896 2.27261C25.9914 0.66523 27.6202 -0.312052 29.2276 0.089794ZM9 0.000221398C10.6569 0.000221398 12 1.34337 12 3.00022C13.6569 3.00022 15 4.34337 15 6.00022C15 7.65708 13.6569 9.00022 12 9.00022C12 10.6571 10.6569 12.0002 9 12.0002C7.34315 12.0002 6 10.6571 6 9.00022C4.34315 9.00022 3 7.65708 3 6.00022C3 4.34337 4.34315 3.00022 6 3.00022C6 1.34337 7.34315 0.000221398 9 0.000221398ZM51 0.000221398C52.6569 0.000221398 54 1.34337 54 3.00022C55.6569 3.00022 57 4.34337 57 6.00022C57 7.65708 55.6569 9.00022 54 9.00022C54 10.6571 52.6569 12.0002 51 12.0002C49.3431 12.0002 48 10.6571 48 9.00022C46.3431 9.00022 45 7.65708 45 6.00022C45 4.34337 46.3431 3.00022 48 3.00022C48 1.34337 49.3431 0.000221398 51 0.000221398ZM41.1213 15.8789C42.2929 17.0505 42.2929 18.95 41.1213 20.1215L38.1213 23.1215C36.9498 24.2931 35.0503 24.2931 33.8787 23.1215C32.7071 21.95 32.7071 20.0505 33.8787 18.8789L36.8787 15.8789C38.0503 14.7073 39.9498 14.7073 41.1213 15.8789ZM15.9155 18.0475C16.8823 17.8738 17.873 18.1843 18.5676 18.8789L38.1216 38.4329C38.8161 39.1275 39.1267 40.118 38.953 41.0848C38.7793 42.0516 38.1433 42.872 37.2504 43.2813L8.50938 56.4562C7.39508 56.965 6.15187 57.1211 4.94635 56.9036C3.74083 56.6861 2.63059 56.1053 1.76439 55.2391C0.898198 54.3729 0.317426 53.2627 0.0998983 52.0571C-0.117629 50.8516 0.0384808 49.6084 0.547309 48.4941L13.719 19.7505C14.1282 18.8574 14.9487 18.2213 15.9155 18.0475ZM17.376 26.1726L6.00521 50.9864C6.00518 50.9864 6.00524 50.9863 6.00521 50.9864C6.00452 50.988 6.00423 50.99 6.00454 50.9917C6.00487 50.9935 6.00574 50.9952 6.00704 50.9965C6.00834 50.9978 6.01 50.9986 6.0118 50.999C6.01295 50.9992 6.01413 50.9991 6.01526 50.9989L30.8283 39.6249L17.376 26.1726ZM56.9104 27.7726C57.3123 29.38 56.335 31.0088 54.7276 31.4107L48.7276 32.9107C47.1202 33.3125 45.4914 32.3352 45.0896 30.7278C44.6877 29.1204 45.665 27.4916 47.2724 27.0898L53.2724 25.5898C54.8798 25.188 56.5086 26.1652 56.9104 27.7726ZM51 42.0002C52.6569 42.0002 54 43.3434 54 45.0002C55.6569 45.0002 57 46.3434 57 48.0002C57 49.6571 55.6569 51.0002 54 51.0002C54 52.6571 52.6569 54.0002 51 54.0002C49.3431 54.0002 48 52.6571 48 51.0002C46.3431 51.0002 45 49.6571 45 48.0002C45 46.3434 46.3431 45.0002 48 45.0002C48 43.3434 49.3431 42.0002 51 42.0002Z" fill="url(#paint0_linear_6415_3378)"/>
<defs>
<linearGradient id="paint0_linear_6415_3378" x1="28.5026" y1="-0.000488281" x2="28.5026" y2="56.9991" gradientUnits="userSpaceOnUse">
<stop stop-color="#EB34D9"/>
<stop offset="1" stop-color="#3FFFAE"/>
</linearGradient>
</defs>
</svg>
