<svg width="48" height="48" viewBox="0 0 48 48" fill="none" xmlns="http://www.w3.org/2000/svg">
<circle cx="24" cy="24" r="24" fill="url(#paint0_radial_862_202)" fill-opacity="0.9"/>
<g clip-path="url(#clip0_862_202)">
<path d="M5.55249 19.5394C5.92271 19.6338 6.96755 20.0385 7.3016 19.8074C7.52306 19.6543 7.57899 19.1056 7.66128 18.8622C7.92433 18.0845 8.20708 17.302 8.56306 16.5599C9.57867 14.4428 11.055 12.4264 12.7738 10.8101C16.0442 7.7347 20.3664 5.75129 24.9441 5.86171C26.6613 5.90315 28.2302 6.334 29.8951 6.67333L30.5141 5.04813C24.4406 3.35092 17.9957 4.24723 12.9791 8.1935C11.4215 9.41867 10.0445 10.9031 8.88263 12.497C7.30377 14.6629 6.36969 17.0228 5.55249 19.5394ZM32.2332 8.16308L35.19 11.0071L36.8404 12.497C37.2151 11.1872 37.4593 9.79595 37.4593 8.43393C37.4593 8.16627 37.6156 7.39485 37.4547 7.19087C37.2807 6.97013 36.4027 7.1893 36.1528 7.2239C34.8489 7.40437 33.444 7.63518 32.2332 8.16308ZM10.7786 21.5033H10.8474L12.4289 19.9458C12.6649 19.7134 12.9309 19.3454 13.2541 19.2318C13.5198 19.1384 13.8797 19.2665 14.1481 19.3076C14.835 19.4124 15.5248 19.4897 16.211 19.6017C16.8472 19.7055 17.7014 19.716 18.274 20.0229C18.6692 20.2348 18.9712 20.6437 19.2992 20.9411C20.2456 21.7991 21.1153 22.7335 22.0561 23.5964C23.4274 24.8545 25.1134 26.1333 26.2506 27.5977H26.457L27.4884 26.5143C27.8049 28.1208 28.1873 29.7142 28.4932 31.3221C28.5998 31.8825 28.9581 32.7237 28.8487 33.286C28.7349 33.8712 27.8305 34.5102 27.4197 34.9108C27.2767 35.0503 26.9619 35.2513 26.9329 35.4632C26.8835 35.8259 27.9229 36.5578 28.1761 36.8072H28.2449L31.6831 33.3537L33.125 31.9315L33.1282 31.119L33.0611 29.1552L32.9404 23.941L32.8794 22.5867L32.027 21.5033C34.0514 20.5101 35.4313 17.9362 36.0249 15.8828C36.1838 15.3329 36.5943 14.3464 36.3864 13.7835C36.2496 13.4134 35.8096 13.107 35.5339 12.8355C34.8798 12.1913 34.1932 11.5827 33.5398 10.9395C32.9761 10.3847 32.3957 9.85313 31.8206 9.3116C31.5919 9.09626 31.3292 8.71695 30.9954 8.66568C30.5415 8.59592 29.8156 9.0448 29.4138 9.2317C27.8778 9.94617 26.4313 10.8868 25.3078 12.1583C24.9366 12.5785 24.5239 13.5154 24.0358 13.7684C23.4908 14.0509 22.4585 13.884 21.8497 13.925L17.1049 14.2515C16.4588 14.2953 15.5059 14.2155 14.9045 14.4339C14.4996 14.5809 14.2259 15.0457 13.939 15.341C13.2798 16.02 12.6198 16.7073 11.9476 17.3726C11.3041 18.0093 10.6746 18.6627 10.0713 19.3363C9.9023 19.525 9.48631 19.8056 9.48631 20.0812C9.48631 20.5213 10.476 21.2052 10.7786 21.5033ZM33.471 18.0497V18.1175C32.8856 18.6939 32.3374 19.3016 31.7519 19.878C31.5851 20.0422 31.3264 20.4057 31.0642 20.4057C30.6102 20.4057 29.8105 19.3615 29.4799 19.0539C27.976 17.655 26.5446 16.1722 25.0817 14.7316C25.3395 14.371 25.6683 14.0353 25.9783 13.7158C26.2385 13.4479 26.4913 13.178 26.7437 12.9032C26.9123 12.7197 27.1569 12.3865 27.4136 12.325C27.7167 12.2525 28.4038 13.0631 28.5119 13.3095C28.6277 13.5739 28.5056 13.9706 28.526 14.2576C28.5735 14.9238 28.8945 15.5555 29.4149 15.9867C29.9325 16.4158 30.5333 16.6579 31.2018 16.7435C31.4921 16.7807 31.8195 16.711 32.0957 16.8212C32.6268 17.033 33.073 17.6579 33.471 18.0497ZM31.133 12.5226C32.9495 12.1555 33.6553 14.8876 31.8206 15.3052C30.0018 15.7191 29.3094 12.8912 31.133 12.5226ZM40.2099 12.497C39.906 12.7961 39.1748 13.2839 39.1015 13.7158C39.0342 14.1127 39.6787 14.8071 39.8798 15.1379C40.5255 16.1999 40.9729 17.3408 41.3294 18.5237C42.4164 22.1312 42.4164 26.1891 41.1955 29.7646C39.4979 34.7354 35.6078 38.965 30.5829 40.8311C29.5747 41.2055 28.545 41.4814 27.4884 41.6827C26.9705 41.7815 26.3557 41.9292 25.8371 41.7648C25.6349 41.7006 25.2231 41.5307 25.2231 41.2747C25.2231 41.0214 25.6432 40.7906 25.7831 40.5983C26.2265 39.9882 26.0062 39.0798 25.2191 38.8764C24.3223 38.6447 23.852 39.3725 23.2938 39.9221L19.6493 43.511C19.2092 43.9439 18.3686 44.503 18.2446 45.1363C18.1059 45.8446 18.9912 46.2752 19.5794 46.0072C20.5389 45.57 21.0117 44.2447 21.9873 43.8905C22.3466 43.7601 22.8464 43.8578 23.225 43.8486C23.9561 43.8309 24.6952 43.7586 25.4255 43.7082C27.3385 43.5761 29.2662 43.1694 31.0642 42.5168C40.2601 39.1798 45.1941 29.5957 43.6079 20.2843C43.2689 18.295 42.5925 16.3791 41.6389 14.5961C41.2613 13.8899 40.8478 13.0083 40.2099 12.497ZM20.1993 15.5442L19.6169 16.6155L17.8615 16.7631L14.1481 17.034C14.3984 16.6074 14.8621 16.0409 15.3171 15.8169C15.701 15.6279 16.2742 15.775 16.6924 15.7359C17.8562 15.6268 19.0288 15.5442 20.1993 15.5442ZM25.2853 18.6146C28.1782 18.3365 28.7084 22.8806 25.8381 23.1844C25.3881 23.232 24.8803 23.2224 24.4628 23.0369C22.2654 22.0605 22.9804 18.8363 25.2853 18.6146ZM17.8615 22.7221V22.7898C19.3396 24.2456 20.852 25.6672 22.331 27.1237C23.0246 27.8066 23.8461 28.8811 24.7378 29.2906L25.4942 28.478C25.1034 27.9316 24.5282 27.5265 24.0502 27.056C22.9146 25.9381 21.7474 24.856 20.612 23.7379C20.1652 23.2979 19.3811 22.2219 18.7553 22.0683C18.4362 21.9901 18.0578 22.5288 17.8615 22.7221ZM15.6609 24.9568V25.0245C15.8796 25.2399 16.5563 25.7044 16.5115 26.0403C16.4278 26.6682 15.394 26.9007 15.3248 27.5977C15.2613 28.2371 15.8855 28.6508 16.4861 28.4278C17.0063 28.2346 17.5497 27.6271 17.8615 27.1914H17.9301C18.1347 27.4774 18.8203 27.918 18.8203 28.2748C18.8203 28.9495 17.5002 29.3498 17.41 30.1032C17.3365 30.7171 18.0712 31.138 18.6177 30.9333C19.1858 30.7205 19.8561 29.9059 20.1993 29.4261H20.2681C20.4129 29.6268 20.8832 29.9235 20.8832 30.1736C20.8832 30.6899 19.8739 31.1393 19.6976 31.6607C19.5228 32.1777 20.0086 32.7023 20.5432 32.6607C20.8955 32.6333 21.1939 32.3685 21.4306 32.133C21.7312 31.8343 21.9809 31.4997 22.331 31.2544C22.731 32.0355 24.0466 30.5553 23.861 30.171C23.5237 29.4728 22.5477 28.8676 21.9873 28.3399C21.0278 27.4365 20.1244 26.4756 19.1682 25.5689C18.5004 24.9358 17.7104 24.3527 17.1737 23.6025C16.5563 23.7732 16.0692 24.4964 15.6609 24.9568ZM11.4663 24.9252C11.006 25.0331 10.7244 25.439 10.4162 25.7579C9.877 26.3153 9.3089 26.8409 8.77175 27.4006C7.44529 28.7829 6.01883 30.1196 4.61213 31.4226C3.82127 32.1549 2.85476 32.8867 2.22238 33.7599C1.75722 34.4022 2.23676 35.1571 3.00819 35.1103C3.93687 35.054 5.00511 33.5541 5.62126 32.9473C6.97519 31.614 8.32725 30.2287 9.74712 28.9635C10.6302 28.1767 11.8265 27.2886 12.4806 26.3051C12.9448 25.6068 12.2727 24.736 11.4663 24.9252ZM31.6831 24.9568L31.6841 29.2906L31.7106 31.1866L30.7203 32.2702C30.7203 30.9745 30.7354 29.6358 30.6454 28.3426C30.5992 27.6778 30.3851 26.6792 30.6243 26.0403C30.7803 25.6236 31.3245 25.2055 31.6831 24.9568ZM4.24597 27.1616C3.5676 27.3336 2.22723 28.634 2.02166 29.2906C1.77829 30.0679 2.66388 30.5948 3.35201 30.4124C4.00987 30.2382 5.31215 28.9665 5.48661 28.3426C5.68513 27.6326 4.94546 26.9842 4.24597 27.1616ZM11.6726 30.479C11.27 30.5649 10.9872 30.9136 10.7098 31.1866L8.99075 32.8796C7.53875 34.3094 6.07795 35.7344 4.59595 37.1339C3.7905 37.8947 2.80151 38.6246 2.14407 39.5158C1.68987 40.1314 2.28409 40.9177 3.00819 40.8488C3.40053 40.8114 3.71029 40.4483 3.97092 40.193L5.62126 38.5678C7.02108 37.1899 8.43378 35.7998 9.872 34.4591C10.7473 33.6431 11.8252 32.8331 12.5271 31.8639C12.9758 31.2443 12.4851 30.3054 11.6726 30.479ZM16.1423 31.563C15.6462 31.6217 15.303 32.0809 14.9732 32.4056C14.1409 33.2253 13.2565 34.0201 12.4802 34.8918C9.96317 37.7181 6.94667 40.1777 4.24597 42.8339C3.57059 43.4982 2.60371 44.1178 2.11494 44.9331C1.76268 45.5208 2.33438 46.1142 2.93942 46.1446C3.48107 46.1718 3.82903 45.6785 4.17721 45.3397C4.99528 44.5436 5.83825 43.7713 6.65274 42.9693C9.10527 40.5542 11.6263 38.207 14.0793 35.7914C14.9953 34.8894 16.0499 34.0578 16.8839 33.0828C17.4075 32.4706 17.046 31.4562 16.1423 31.563ZM23.2938 35.5031C22.3447 35.8598 21.4978 37.1981 20.7485 37.8792C19.0592 39.4144 17.4239 41.03 15.7984 42.6307C15.0596 43.3584 14.1077 44.026 13.4998 44.8653C13.0205 45.5272 13.6757 46.2667 14.4231 46.1365C14.8227 46.0669 15.1763 45.6731 15.4547 45.4061C15.9982 44.8847 16.5496 44.3652 17.1049 43.8557C18.871 42.2357 20.6241 40.5873 22.331 38.9064C22.9889 38.2586 23.9873 37.593 24.4622 36.8072C24.8986 36.0848 24.0722 35.2105 23.2938 35.5031ZM17.4488 35.9093C16.5282 35.9228 15.4451 37.4937 14.8357 38.0938C12.5656 40.3292 10.0771 42.4162 7.90221 44.7363C7.39365 45.2788 7.55469 46.0474 8.37184 46.1392C9.38008 46.2525 10.4221 44.7396 11.0537 44.1206C13.3074 41.9119 15.8616 39.9061 17.9583 37.5493C18.4916 36.9499 18.5251 35.8935 17.4488 35.9093Z" fill="white"/>
</g>
<defs>
<radialGradient id="paint0_radial_862_202" cx="0" cy="0" r="1" gradientUnits="userSpaceOnUse" gradientTransform="translate(31.5 14.25) rotate(134.599) scale(37.9195)">
<stop stop-color="#0944B7"/>
<stop offset="0.445" stop-color="#0944B7"/>
<stop offset="0.78" stop-color="#6000DB"/>
<stop offset="1" stop-color="#B7095D"/>
</radialGradient>
<clipPath id="clip0_862_202">
<rect width="44.25" height="44.25" fill="white" transform="translate(1.98047 2.73047)"/>
</clipPath>
</defs>
</svg>
